<?xml version="1.0" encoding="utf-8"?>

<!-- Uploaded to: SVG Repo, www.svgrepo.com, Generator: SVG Repo Mixer Tools -->
<svg version="1.1" id="Uploaded to svgrepo.com" xmlns="http://www.w3.org/2000/svg" xmlns:xlink="http://www.w3.org/1999/xlink" 
	 width="800px" height="800px" viewBox="0 0 32 32" xml:space="preserve">
<style type="text/css">
	.bentblocks_een{fill:white;}
	.st0{fill:#0B1719;}
</style>
<g>
	<g>
		<path class="bentblocks_een" d="M26,9h-1V6c0-1.1-0.9-2-2-2h-4c-1.1,0-2,0.9-2,2v3H6c-1.1,0-2,0.9-2,2v15c0,1.1,0.9,2,2,2h20
			c1.1,0,2-0.9,2-2V11C28,9.895,27.105,9,26,9z M19,6h4v3h-4V6z M26,11v12H6V11H26z M6,26v-1h20v1H6z"/>
		<path class="bentblocks_een" d="M9,17h1c1.1,0,2-0.9,2-2v-0.9c0-1.1-0.9-2-2-2H9c-1.1,0-2,0.9-2,2V15C7,16.1,7.9,17,9,17z M9,14.1
			h1V15H9V14.1z"/>
		<path class="bentblocks_een" d="M19,22c2.761,0,5-2.239,5-5s-2.239-5-5-5s-5,2.239-5,5S16.239,22,19,22z M19,14
			c1.654,0,3,1.346,3,3c0,1.654-1.346,3-3,3c-1.654,0-3-1.346-3-3C16,15.346,17.346,14,19,14z"/>
	</g>
	<g>
		<path class="bentblocks_een" d="M26,9h-1V6c0-1.1-0.9-2-2-2h-4c-1.1,0-2,0.9-2,2v3H6c-1.1,0-2,0.9-2,2v15c0,1.1,0.9,2,2,2h20
			c1.1,0,2-0.9,2-2V11C28,9.895,27.105,9,26,9z M19,6h4v3h-4V6z M26,11v12H6V11H26z M6,26v-1h20v1H6z"/>
		<path class="bentblocks_een" d="M9,17h1c1.1,0,2-0.9,2-2v-0.9c0-1.1-0.9-2-2-2H9c-1.1,0-2,0.9-2,2V15C7,16.1,7.9,17,9,17z M9,14.1
			h1V15H9V14.1z"/>
		<path class="bentblocks_een" d="M19,22c2.761,0,5-2.239,5-5s-2.239-5-5-5s-5,2.239-5,5S16.239,22,19,22z M19,14
			c1.654,0,3,1.346,3,3c0,1.654-1.346,3-3,3c-1.654,0-3-1.346-3-3C16,15.346,17.346,14,19,14z"/>
	</g>
</g>
</svg>